# xmcd
#
# Track frame offsets:
#	150
#	15195
#	34240
#	46157
#	59982
#	73287
#	87104
#	101729
#	115822
#	130457
#	148097
#	159620
#	173477
#	188780
#	202427
#
# Disc length: 2897 seconds
#
# Revision: 0
# Processed by: cddbd v1.5PL3 Copyright (c) Steve Scherf et al.
# Submitted via: dBpowerAMP V4.0
#
DISCID=df0b4f0f
DTITLE=Diversos - Sertanejo Sem Limite
DYEAR=1900
DGENRE=Country
TTITLE0=Rio Negro and Solimões - Só Alegria
TTITLE1=Pena Branca and Xavantinho - O Cio da Terra
TTITLE2=Roberta Miranda - Vida Dividida
TTITLE3=Tonico and Tinoco - Moreninha Linda
TTITLE4=Emílo and Eduardo - Bate Coração
TTITLE5=Tiãozinho and Alessandro - Fui dando Porrada
TTITLE6=Paula Hunter - Eu quero ser Feliz
TTITLE7=Adalberto and Adriando - Não Acredito
TTITLE8=Fábio and Fernando - Tô Facim
TTITLE9=Maurício and Mauri - Gato e Sapato
TTITLE10=Chitãozinho and Chororó - Medley Chamame
TTITLE11=André and Adriano - Água de Côco
TTITLE12=João Mineiro and Marciano - Viola Está Chorando
TTITLE13=Donizete - Galopeira
TTITLE14=Meninas Cantoras de Petrópolis - Desculpe, mas eu vou Chorar
EXTD=
EXTT0=
EXTT1=
EXTT2=
EXTT3=
EXTT4=
EXTT5=
EXTT6=
EXTT7=
EXTT8=
EXTT9=
EXTT10=
EXTT11=
EXTT12=
EXTT13=
EXTT14=
PLAYORDER=
